<svg viewBox="134.44974093264247 101.05919999999999 144.279792746114 155.232" version="1.1" xmlns:xlink="http://www.w3.org/1999/xlink" xmlns="http://www.w3.org/2000/svg" style="max-height: 500px" width="144.279792746114" height="155.232">
<path d="M241.9436 50.02177C242.0726 51.20487 242.2409 52.42325 242.4484 53.6769 242.6559 54.93056 243.0104 56.7031 243.5117 58.99454 244.013 61.28597 244.6555 64.09163 245.4391 67.41154 246.2228 70.73144 247.0332 74.4321 247.8703 78.51353 248.7075 82.59497 249.4462 86.87916 250.0863 91.3661 250.7265 95.85303 251.2367 100.3602 251.6169 104.8877 251.997 109.4152 252.1366 113.9067 252.0355 118.3622 251.9344 122.8178 251.5626 127.162 250.9202 131.3951 250.2777 135.6281 249.5513 139.7549 248.7409 143.7757 247.9305 147.7964 247.0422 151.6925 246.0759 155.4641 245.1096 159.2356 244.1228 162.6969 243.1156 165.8481 242.1084 168.9994 241.1308 171.7776 240.1828 174.1828 239.2347 176.588 238.3718 178.6582 237.5941 180.3934 236.8164 182.1286 236.1863 183.4123 235.7038 184.2446 235.2214 185.0768 234.9693 185.437 234.9475 185.3254 234.9164 185.1657 234.8186 184.6632 234.654 183.8181" stroke="#000000" fill="none" stroke-linejoin="round" stroke-linecap="round" stroke-width="2.598425" transform="matrix(.5454546,0,0,.5454546,47.81536,109.05139)"/>
<path d="M244.1222 50.25482C243.9011 50.36566 243.7611 50.43581 243.7023 50.46526 243.6614 50.48575 243.7257 50.50296 243.8952 50.51688 244.0646 50.53081 244.397 50.55811 244.8922 50.5988 245.3875 50.63949 246.2471 50.68687 247.4712 50.74096 248.6953 50.79505 250.5269 50.80598 252.9659 50.77377 255.4049 50.74155 258.4619 50.56078 262.1368 50.23146 265.8118 49.90213 269.7426 49.55169 273.9294 49.18011 278.1161 48.80854 282.2658 48.50384 286.3785 48.26601 290.4912 48.02817 294.4687 47.7594 298.311 47.45968 302.1533 47.15997 305.7943 46.83835 309.2339 46.49482 312.6735 46.15129 315.6798 45.82439 318.2527 45.5141 320.8256 45.20382 323.6523 44.80585 326.7327 44.3202 329.8132 43.83454 331.755 43.52509 332.5583 43.39183 333.3615 43.25857 334.0099 43.16647 334.5034 43.11552 334.997 43.06457 335.8075 43.03629 336.9349 43.03069 338.0624 43.02508 338.8697 43.06615 339.3569 43.15389 339.8441 43.24164 340.2248 43.42159 340.4989 43.69375 340.7731 43.96591 340.9614 44.3539 341.064 44.85773 341.1665 45.36155 341.2479 45.98984 341.3083 46.74259 341.3686 47.49534 341.4644 48.37342 341.5956 49.37682 341.7269 50.38022 341.893 51.51531 342.094 52.78208 342.2949 54.04885 342.4743 55.46048 342.6322 57.01698 342.79 58.57348 342.9019 60.25734 342.9677 62.06857 343.0336 63.8798 343.1262 65.77902 343.2455 67.76623 343.3648 69.75344 343.8185 72.73893 344.6068 76.72272 345.395 80.70651 345.91 83.76436 346.1516 85.89628 346.3933 88.0282 346.6195 91.31538 346.8301 95.75783 347.0408 100.2003 347.2074 103.5141 347.33 105.6992 347.4526 107.8843 347.5889 109.9954 347.7389 112.0325 347.8889 114.0697 347.9839 116.1747 348.0239 118.3475 348.064 120.5204 348.0234 122.7063 347.9022 124.9053 347.781 127.1042 347.6517 129.2104 347.5143 131.2239 347.377 133.2373 347.2827 135.022 347.2314 136.5779 347.18 138.1338 347.0579 140.0996 346.865 142.4751 346.672 144.8507 346.4094 147.0164 346.077 148.9723 345.7447 150.9281 345.1783 153.8003 344.3779 157.5887 343.5775 161.3771 342.926 164.9246 342.4233 168.231 341.9207 171.5374 341.4815 174.0779 341.1059 175.8524 340.7302 177.627 340.342 179.3367 339.9413 180.9816 339.5406 182.6265 339.1825 184.1521 338.8669 185.5583 338.5513 186.9644 338.1445 188.6874 337.6465 190.7272 337.1485 192.767 336.8636 194.0242 336.7919 194.4988 336.6942 195.1457 336.9488 195.1836 337.5557 194.6125" stroke="#000000" fill="none" stroke-linejoin="round" stroke-linecap="round" stroke-width="2.598425" transform="matrix(.5454546,0,0,.5454546,47.81536,109.05139)"/>
<path d="M235.3568 186.004C235.887 186.0291 236.5018 186.2437 237.201 186.6477 237.9002 187.0517 238.7049 187.4299 239.6151 187.7825 240.5254 188.1351 241.7084 188.492 243.1644 188.8534 244.6203 189.2148 246.3101 189.5703 248.2339 189.92 250.1576 190.2697 252.1423 190.6125 254.1879 190.9485 256.2336 191.2845 258.1726 191.6135 260.005 191.9356 261.8375 192.2576 263.628 192.5602 265.3765 192.8433 267.125 193.1263 268.8505 193.3886 270.553 193.6301 272.2556 193.8717 273.9558 194.0484 275.6538 194.1603 277.3517 194.2723 279.2936 194.3777 281.4795 194.4767 283.6653 194.5757 286.0446 194.6929 288.6174 194.8282 291.1901 194.9635 293.5756 195.1195 295.7738 195.2961 297.972 195.4727 300.045 195.6638 301.9929 195.8696 303.9407 196.0754 305.7634 196.245 307.4608 196.3785 309.1583 196.512 312.0526 196.6604 316.1437 196.8237 320.2349 196.987 322.7345 197.0959 323.6425 197.1504 324.5505 197.2049 325.8364 197.3536 327.5003 197.5967 329.1642 197.8397 330.6562 198.0145 331.9764 198.1211 333.2966 198.2276 334.2387 198.3112 334.8027 198.3718 335.5683 198.454 335.7924 198.2118 335.4752 197.6452" stroke="#000000" fill="none" stroke-linejoin="round" stroke-linecap="round" stroke-width="2.598425" transform="matrix(.5454546,0,0,.5454546,47.81536,109.05139)"/>
<path d="M290.029 61.3023C288.6721 60.30374 287.6606 59.60444 286.9946 59.2044 286.5365 58.92924 285.9965 58.69011 285.3747 58.48701 284.7529 58.2839 284.079 58.15338 283.3531 58.09544 282.6273 58.0375 281.8399 58.00563 280.991 57.99984 280.142 57.99404 279.2681 58.02848 278.3693 58.10316 277.4704 58.17783 276.6004 58.31924 275.7592 58.52738 274.918 58.73553 274.0546 59.0256 273.1691 59.3976 272.2835 59.7696 271.3833 60.23132 270.4683 60.78275 269.5532 61.33418 268.6868 61.9573 267.8691 62.6521 267.0513 63.3469 266.2822 64.13039 265.5618 65.00258 264.8414 65.87476 264.2073 66.8248 263.6594 67.85268 263.1115 68.88057 262.6536 69.90998 262.2858 70.9409 261.918 71.97181 261.5904 73.04051 261.3032 74.14699 261.016 75.25346 260.7829 76.40761 260.6039 77.60944 260.4249 78.81126 260.3077 80.00531 260.2522 81.19159 260.1967 82.37786 260.1725 83.60726 260.1794 84.87978 260.1864 86.15229 260.2779 87.27234 260.4539 88.23993 260.6299 89.20752 260.9709 90.42325 261.4769 91.88711 261.9829 93.35097 262.5241 94.69541 263.1006 95.92044 263.6771 97.14546 264.3574 98.33973 265.1413 99.50324 265.9252 100.6668 266.826 101.683 267.8435 102.5518 268.8611 103.4207 270.0155 104.2059 271.3069 104.9074 272.5982 105.6088 273.9533 106.2266 275.3723 106.7609 276.7912 107.2951 278.1226 107.7519 279.3664 108.1315 280.6102 108.511 281.8578 108.795 283.1092 108.9834 284.3606 109.1719 285.6123 109.2567 286.8644 109.2379 288.1166 109.2192 289.3562 109.0332 290.5834 108.6802 291.8105 108.3271 293.0114 107.857 294.186 107.2698 295.3605 106.6827 296.4949 106.0274 297.5891 105.3039 298.6833 104.5804 299.6607 103.8376 300.5215 103.0755 301.3822 102.3133 302.1562 101.5116 302.8433 100.6703 303.5305 99.82897 304.115 98.93981 304.5969 98.00281 305.0789 97.06581 305.4441 96.12402 305.6927 95.17744 305.9412 94.23087 306.128 93.265 306.253 92.27985 306.378 91.29468 306.4531 90.28878 306.4781 89.26213 306.5031 88.23549 306.5044 87.23813 306.4818 86.27005 306.4593 85.30197 306.353 84.37444 306.1629 83.48747 305.9728 82.6005 305.5386 81.3582 304.8603 79.76057 304.182 78.16295 303.6627 76.86602 303.3025 75.86977 302.9423 74.87353 302.5501 73.89289 302.1259 72.92785 301.7017 71.96281 301.2492 71.11848 300.7686 70.39487 300.2879 69.67125 299.4889 68.74914 298.3716 67.62852 297.2544 66.50791 296.3918 65.70706 295.7841 65.22598 295.1762 64.74489 294.4851 64.29215 293.7105 63.86777 292.5778 63.24716 290.9397 62.52615 288.7961 61.70473" stroke="#000000" fill="none" stroke-linejoin="round" stroke-linecap="round" stroke-width="2.598425" transform="matrix(.5454546,0,0,.5454546,47.81536,109.05139)"/>
<path d="M324.1794 64.08417C323.1668 63.5079 321.814 63.04921 320.1212 62.7081 319.0169 62.4856 318.1138 62.34997 317.4116 62.3012 316.7094 62.25243 315.9789 62.23815 315.2199 62.25835 314.461 62.27856 313.7368 62.45273 313.0473 62.78085 312.3578 63.10897 311.7595 63.59044 311.2523 64.22528 310.745 64.86012 310.2845 65.74234 309.8706 66.87192 309.4567 68.0015 309.1164 69.36276 308.8497 70.9557 308.5829 72.54865 308.3798 74.18985 308.2404 75.8793 308.101 77.56876 308.0181 79.27558 307.9917 80.99976 307.9652 82.72395 307.9945 84.43106 308.0795 86.12109 308.1645 87.81112 308.3803 89.40538 308.7269 90.90386 309.0735 92.40235 309.5333 93.89125 310.1064 95.37058 310.6796 96.84991 311.3204 98.24676 312.0288 99.56113 312.7373 100.8755 313.5089 101.9935 314.3436 102.9151 315.1782 103.8367 316.0881 104.5944 317.0732 105.1883 318.0582 105.7821 319.0258 106.1965 319.9758 106.4315 320.9258 106.6665 321.8866 106.8145 322.8581 106.8757 323.8297 106.9368 324.8085 106.8575 325.7948 106.6379 326.781 106.4182 327.7304 106.0403 328.6429 105.5041 329.5555 104.9679 330.4393 104.3093 331.2944 103.5282 332.1495 102.7471 332.9079 101.9036 333.5694 100.9977 334.2309 100.0918 334.7951 99.16715 335.262 98.22369 335.7288 97.28023 336.1046 96.32862 336.3892 95.36885 336.6738 94.40909 336.8553 93.48613 336.9339 92.59999 337.0125 91.71385 337.0557 90.79377 337.0635 89.83974 337.0714 88.8857 337.0319 87.85302 336.945 86.7417 336.8581 85.63037 336.6976 84.47982 336.4636 83.29005 336.2295 82.10029 335.9254 81.00067 335.5514 79.9912 335.1773 78.98171 334.5096 77.58551 333.5481 75.80258 332.5866 74.01965 331.6245 72.19427 330.662 70.32646 329.6994 68.45864 328.932 67.24202 328.3598 66.67661 327.7875 66.11119 327.1472 65.76885 326.4388 65.6496 325.4069 65.47587 323.9145 65.57978 321.9617 65.96133" stroke="#000000" fill="none" stroke-linejoin="round" stroke-linecap="round" stroke-width="2.598425" transform="matrix(.5454546,0,0,.5454546,47.81536,109.05139)"/>
<path d="M283.1544 79.79935C282.4277 79.92712 281.9436 80.09476 281.7023 80.30227 281.5354 80.44575 281.381 80.64382 281.2391 80.89647 281.0972 81.14912 280.9878 81.47621 280.911 81.87775 280.8342 82.27928 280.7857 82.7008 280.7655 83.1423 280.7453 83.58381 280.8031 83.95833 280.9388 84.26587 281.0745 84.57341 281.312 84.76137 281.6511 84.82974 281.9903 84.89812 282.327 84.79777 282.6615 84.52868 282.9959 84.25959 283.2675 83.86702 283.4763 83.35096 283.685 82.8349 283.8186 82.28768 283.8771 81.7093 283.9355 81.13092 283.9301 80.6184 283.8608 80.17175 283.7915 79.7251 283.6345 79.39792 283.3896 79.1902 283.1448 78.98249 282.8786 78.86825 282.5912 78.84747 282.1801 78.81776 281.6746 79.25844 281.0748 80.16949" stroke="#000000" fill="none" stroke-linejoin="round" stroke-linecap="round" stroke-width="2.598425" transform="matrix(.5454546,0,0,.5454546,47.81536,109.05139)"/>
<path d="M319.5226 79.81921C319.0924 80.98619 318.8247 81.86491 318.7195 82.45535 318.6472 82.86108 318.6074 83.2661 318.6002 83.67039 318.593 84.0747 318.614 84.40994 318.6634 84.67613 318.7128 84.94233 318.8338 85.10755 319.0266 85.1718 319.2194 85.23604 319.4318 85.2024 319.664 85.07085 319.8961 84.93931 320.0989 84.67256 320.2724 84.2706 320.4459 83.86863 320.5539 83.42179 320.5963 82.93007 320.6386 82.43835 320.6557 81.9735 320.6474 81.53552 320.6391 81.09754 320.5845 80.7375 320.4835 80.45539 320.3367 80.04558 320.1038 79.84246 319.7848 79.84605" stroke="#000000" fill="none" stroke-linejoin="round" stroke-linecap="round" stroke-width="2.598425" transform="matrix(.5454546,0,0,.5454546,47.81536,109.05139)"/>
<path d="M271.3673 55.72575C271.1722 55.34341 271.38 54.73976 271.9907 53.91482 272.3964 53.36682 273.0766 52.55745 274.0313 51.48673 274.986 50.41601 276.156 49.24389 277.5412 47.97039 278.9265 46.69689 280.4334 45.48223 282.0621 44.32641 283.6907 43.17059 285.3503 42.22134 287.0409 41.47865 288.7315 40.73595 290.2749 40.19577 291.6711 39.85811 293.0673 39.52045 294.261 39.2783 295.2521 39.13165 296.2432 38.98501 297.0295 38.89748 297.6111 38.86906 298.1926 38.84064 298.4989 38.82568 298.5297 38.82417 298.5606 38.82266 298.5736 38.82884 298.5687 38.84269 298.5638 38.85655 298.5151 38.99402 298.4228 39.2551 298.3305 39.51618 298.2024 39.66169 298.0385 39.69164 297.8746 39.72158 297.7495 39.85464 297.6632 40.09084 297.577 40.32704 297.5329 41.03393 297.5311 42.21151 297.5292 43.38909 297.5352 44.23032 297.5491 44.73519 297.563 45.24007 297.3449 45.44403 296.8946 45.34708 296.4443 45.25013 295.9656 45.07258 295.4584 44.81445 294.9513 44.55631 294.5087 44.38274 294.1307 44.29374 293.7527 44.20474 293.2944 44.15579 292.7557 44.14689 292.2171 44.13799 291.5451 44.2397 290.7399 44.45203 289.9347 44.66435 288.5575 45.16536 286.6081 45.95506 284.6587 46.74474 283.3564 47.32789 282.7012 47.7045 282.046 48.08111 281.4853 48.47637 281.0191 48.8903 280.5529 49.30423 280.1274 49.75138 279.7427 50.23175 279.358 50.71213 278.9335 51.21463 278.4692 51.73927 278.005 52.26392 277.5243 52.74688 277.0271 53.18816 276.5299 53.62944 275.954 54.06812 275.2995 54.50422 274.645 54.94032 274.3385 55.12217 274.38 55.04978 274.4215 54.97739 274.5252 54.79641 274.6911 54.50685 274.857 54.21728 275.0725 53.89188 275.3375 53.53063 275.6025 53.16939 275.9862 52.7324 276.4885 52.21967 276.9908 51.70694 277.6616 51.09884 278.5007 50.39537 279.3398 49.69189 280.3774 48.90363 281.6133 48.03058 282.8493 47.15753 284.1113 46.31362 285.3995 45.49886 286.6876 44.68411 287.8406 43.99142 288.8585 43.42079 289.8764 42.85017 290.7493 42.41717 291.4772 42.12181 292.2051 41.82644 292.852 41.60069 293.4178 41.44456 293.9837 41.28842 294.2924 41.20324 294.3441 41.189L294.3761 41.18195 294.3116 41.2087C294.2384 41.23608 293.8004 41.39986 292.9975 41.70004 292.1947 42.00021 291.4577 42.31565 290.7864 42.64634 290.1152 42.97703 288.6852 43.72936 286.4964 44.90332 284.3076 46.07728 282.6244 47.01166 281.4468 47.70645 280.2691 48.40125 279.3147 48.98406 278.5833 49.45489 277.852 49.92572 277.5355 50.14186 277.6339 50.1033 277.7322 50.06475 277.9781 49.96836 278.3716 49.81413 278.765 49.65991 279.5741 49.16004 280.799 48.31454 282.0237 47.46903 283.3924 46.56502 284.9048 45.60251 286.4172 44.64 287.9002 43.77198 289.3538 42.99844 290.8073 42.22491 292.0387 41.66777 293.0481 41.32703 294.0575 40.9863 294.7567 40.80516 295.1456 40.78363 295.5346 40.76209 295.7573 40.88372 295.8139 41.1485 295.8704 41.41328 295.9947 41.5572 296.1867 41.58027" stroke="#000000" fill="none" stroke-linejoin="round" stroke-linecap="round" stroke-width="2.598425" transform="matrix(.5454546,0,0,.5454546,47.81536,109.05139)"/>
<path d="M313.5566 45.34298C313.4175 45.85213 313.4755 46.96794 313.7306 48.69041 313.9856 50.41287 314.1772 51.50392 314.3054 51.96355 314.4335 52.42317 314.5036 52.59166 314.5157 52.46902 314.5278 52.34637 314.5581 52.03975 314.6066 51.54917 314.6551 51.05859 314.8777 50.77328 315.2743 50.69323 315.6709 50.61319 316.1751 50.44893 316.7868 50.20045 317.3986 49.95197 318.4359 49.27122 319.8986 48.15821 321.3614 47.0452 322.459 46.23531 323.1915 45.72855 323.9239 45.22178 324.7087 44.72357 325.5458 44.23392 326.3829 43.74426 327.1501 43.34953 327.8474 43.04972 328.5447 42.74991 329.1348 42.57874 329.6177 42.53622 330.1007 42.4937 330.4602 42.63963 330.6964 42.97402 330.9325 43.3084 331.1438 43.68672 331.3301 44.10897 331.5165 44.53122 331.7192 44.94532 331.9382 45.35127 332.1572 45.75722 332.4092 46.11846 332.694 46.43499 332.9789 46.75151 333.4043 47.1103 333.9703 47.51136 334.5364 47.91241 334.9312 48.15257 335.1547 48.23183 335.3783 48.3111 335.5006 48.18745 335.5216 47.86089 335.5426 47.53432 335.4568 47.13801 335.2642 46.67194 335.0715 46.20586 334.8804 45.82818 334.6908 45.53889 334.5013 45.2496 334.278 44.96507 334.0211 44.68529 333.7643 44.40552 333.479 44.13876 333.1653 43.88502 332.8516 43.63128 332.4975 43.41647 332.103 43.24059 331.7085 43.06472 331.2974 42.9429 330.8698 42.87514 330.4421 42.80738 329.7008 42.78231 328.6457 42.79995 327.5906 42.81758 326.7589 42.87779 326.1505 42.98056 325.5422 43.08334 324.9008 43.21512 324.2263 43.37591 323.5519 43.53669 322.8679 43.75055 322.1744 44.01748 321.4808 44.2844 320.8301 44.55663 320.2224 44.83417 319.6145 45.1117 318.899 45.45889 318.0759 45.87572 317.2527 46.29255 316.6116 46.65418 316.1525 46.96062 315.6935 47.26705 315.3679 47.5263 315.1758 47.73836 314.9837 47.95042 314.8817 48.06304 314.8698 48.07621L314.8625 48.08457 314.8776 48.06908C314.8947 48.05116 315.041 47.89794 315.3164 47.60941 315.5919 47.32087 315.9358 47.02071 316.3483 46.70893 316.7608 46.39715 317.2944 46.06262 317.9493 45.70534 318.6041 45.34806 319.3462 45.0136 320.1755 44.70194 321.0048 44.39028 321.8491 44.14362 322.7084 43.96194 323.5677 43.78027 324.2595 43.68035 324.7837 43.66218 325.3079 43.64401 325.6275 43.68419 325.7426 43.78271 325.8576 43.88123 325.8457 44.01067 325.707 44.17103 325.5682 44.33139 325.0016 44.65556 324.0071 45.14353 323.0126 45.63151 321.7866 46.31253 320.3291 47.18659 318.8716 48.06065 317.8809 48.63964 317.3569 48.92356 316.833 49.20749 316.5483 49.36174 316.503 49.38631 316.4576 49.41089 316.4546 49.40382 316.494 49.3651 316.5498 49.31013 317.0241 48.84342 317.9168 47.96498" stroke="#000000" fill="none" stroke-linejoin="round" stroke-linecap="round" stroke-width="2.598425" transform="matrix(.5454546,0,0,.5454546,47.81536,109.05139)"/>
<path d="M287.5941 129.3344C287.7243 129.0567 288.0102 129.6274 288.4516 131.0468 288.893 132.4661 289.4555 134.0105 290.1392 135.6802 290.8228 137.3498 291.6621 138.9391 292.6571 140.4481 293.6521 141.9571 294.7315 143.088 295.8954 143.8409 297.0593 144.5939 298.2441 145.0644 299.4499 145.2526 300.6557 145.4408 301.7384 145.5192 302.698 145.4878 303.6576 145.4565 304.5109 145.2762 305.258 144.947 306.0051 144.6177 306.9288 144.0117 308.029 143.1289 309.1292 142.2461 309.8727 141.6649 310.2595 141.3856 310.6463 141.1062 311.0032 140.9028 311.33 140.7755 311.7724 140.6031 311.8898 140.7312 311.6823 141.1596" stroke="#000000" fill="none" stroke-linejoin="round" stroke-linecap="round" stroke-width="2.598425" transform="matrix(.5454546,0,0,.5454546,47.81536,109.05139)"/>
<path d="M287.7193 125.4045C287.5062 125.5801 287.3224 125.9357 287.1678 126.4712 287.0133 127.0068 286.6403 127.8344 286.0488 128.954 285.1888 130.582 283.3338 132.5621 280.4839 134.8941" stroke="#000000" fill="none" stroke-linejoin="round" stroke-linecap="round" stroke-width="2.598425" transform="matrix(.5454546,0,0,.5454546,47.81536,109.05139)"/>
<path d="M349.2922 84.78756C349.3944 85.071 349.3035 85.37628 349.0195 85.70339 348.827 85.92519 348.8838 86.36537 349.19 87.02391 349.4962 87.68246 350.161 88.32264 351.1844 88.94446 352.2078 89.56628 353.71 90.32225 355.691 91.21238 357.672 92.10251 359.9789 93.07379 362.6118 94.12622 365.2446 95.17865 369.2616 96.70285 374.6627 98.69881 380.0638 100.6948 383.9147 102.2321 386.2155 103.3108 388.5162 104.3896 390.3753 105.3893 391.7927 106.3101 393.2101 107.2309 394.5408 108.1747 395.7848 109.1415 397.0289 110.1084 397.7969 110.7141 398.0889 110.9586 398.3809 111.2031 398.5302 111.451 398.537 111.7023 398.5437 111.9536 398.2565 112.6044 397.6754 113.6549 397.0942 114.7054 396.6672 115.4103 396.3943 115.7695 396.1215 116.1288 395.7611 116.5221 395.313 116.9494 394.8649 117.3767 394.2352 117.8752 393.4239 118.4448 392.6126 119.0144 390.9442 120.0862 388.4186 121.6602 385.8931 123.2342 383.9904 124.4629 382.7104 125.3462 381.4305 126.2295 380.2155 127.0917 379.0656 127.9327 377.9156 128.7737 376.6669 129.6653 375.3195 130.6074 373.972 131.5496 372.5697 132.4968 371.1124 133.4491 369.6551 134.4013 368.4027 135.2036 367.3552 135.8558 366.3077 136.508 365.1896 137.2313 364.001 138.0259 362.8124 138.8204 361.9115 139.4045 361.2985 139.7783 360.6854 140.1521 359.9199 140.5233 359.0019 140.8918 358.0839 141.2604 357.2935 141.5233 356.6306 141.6806 355.9677 141.8379 355.3435 141.9485 354.7581 142.0125 354.1726 142.0765 353.6524 142.231 353.1973 142.4762 352.7421 142.7213 352.1393 142.9278 351.3889 143.0958 350.6385 143.2637 349.9598 143.486 349.353 143.7626 348.7461 144.0393 348.2375 144.328 347.8271 144.6288 347.4168 144.9296 347.0195 145.3239 346.6351 145.8116 346.2508 146.2994 346.0042 146.7152 345.8955 147.059 345.7868 147.4028 345.71 148.1115 345.665 149.185 345.62 150.2585 345.6047 151.1648 345.6194 151.904 345.634 152.6432 345.7171 153.4336 345.8689 154.2752 346.0207 155.1169 346.2469 155.9787 346.5477 156.8607 346.8484 157.7427 347.2693 158.5439 347.8104 159.2644 348.3514 159.9848 349.0323 160.637 349.8529 161.2208 350.6735 161.8047 351.6208 162.2914 352.6948 162.681 353.7688 163.0706 354.9155 163.3601 356.1351 163.5496 357.3547 163.739 358.9078 163.9082 360.7943 164.057 362.6809 164.2058 363.8507 164.2453 364.3037 164.1755 364.7567 164.1057 365.1486 163.8941 365.4795 163.5409 365.8103 163.1877 366.0975 162.7451 366.341 162.213 366.5845 161.6809 366.771 161.1399 366.9006 160.5899 367.0301 160.0399 367.1089 159.5116 367.1369 159.005 367.1648 158.4984 367.06 158.0768 366.8224 157.7401 366.5847 157.4034 366.221 157.1279 365.7314 156.9136 365.2417 156.6993 364.3327 156.3756 363.0043 155.9426 361.6759 155.5096 360.5931 155.1912 359.7558 154.9875 358.9185 154.7837 357.992 154.5964 356.9765 154.4255 355.9609 154.2546 354.944 154.138 353.9257 154.0758 352.9073 154.0135 352.0166 153.9416 351.2534 153.8601 350.4903 153.7786 349.8677 153.636 349.3856 153.4321 348.9035 153.2283 348.5331 152.9431 348.2745 152.5764 348.0159 152.2098 347.6995 151.5796 347.3254 150.6857 346.9513 149.7919 346.6942 149.1342 346.5542 148.7128 346.4141 148.2914 346.3296 147.8865 346.3006 147.4981 346.2715 147.1097 346.3232 146.6553 346.4556 146.1347 346.6473 145.3805 347.2692 144.2704 348.3211 142.8043" stroke="#000000" fill="none" stroke-linejoin="round" stroke-linecap="round" stroke-width="2.598425" transform="matrix(.5454546,0,0,.5454546,48.7991,124.95343)"/>
<path d="M324.7548 321.6761C324.3362 320.5308 323.7145 318.9818 322.8898 317.0292 322.065 315.0766 320.9856 312.6898 319.6517 309.8688 318.3177 307.0479 316.8345 304.0236 315.202 300.796 313.5695 297.5683 311.7971 294.3361 309.8849 291.0992 307.9728 287.8623 305.9606 284.6783 303.8486 281.5471 301.7366 278.4159 299.5079 275.416 297.1626 272.5474 294.8173 269.6788 292.7046 267.2036 290.8246 265.122 288.9446 263.0404 287.536 261.5605 286.5988 260.6822 285.6616 259.8039 284.9135 259.1719 284.3545 258.7862 283.7955 258.4005 283.3146 258.0501 282.9117 257.735 282.5088 257.4198 282.1834 257.1312 281.9354 256.869 281.6875 256.6069 281.5178 256.4276 281.4265 256.3311 281.3352 256.2345 281.3476 256.1858 281.4636 256.1849 281.6305 256.1836 282.0036 256.1807 282.5828 256.1762" stroke="#000000" fill="none" stroke-linejoin="round" stroke-linecap="round" stroke-width="2.596988" transform="matrix(.5454546,0,0,.5454546,0,0)"/>
<path d="M281.9745 256.6262C281.8185 255.6954 281.5258 254.7185 281.0964 253.6954 280.8124 253.0187 280.5184 252.3972 280.2144 251.8309 279.9104 251.2645 279.5293 250.7004 279.071 250.1386 278.6127 249.5768 278.0682 249.0698 277.4374 248.6178 276.8066 248.1657 276.0907 247.8047 275.2897 247.5348 274.4887 247.2648 273.6289 247.0714 272.7103 246.9544 271.7917 246.8374 270.8163 246.8412 269.7841 246.9658 268.7519 247.0904 267.7921 247.3022 266.9045 247.6014 266.017 247.9005 265.3236 248.2727 264.8242 248.7178 264.3248 249.1629 263.9591 249.6588 263.7271 250.2056 263.495 250.7523 263.3268 251.3209 263.2223 251.9113 263.1178 252.5017 263.1069 253.0335 263.1897 253.5068 263.2725 253.9802 263.427 254.3977 263.6534 254.7595 263.8797 255.1213 264.1777 255.4586 264.5473 255.7714 264.9169 256.0841 265.6672 256.4683 266.798 256.9239 267.9288 257.3795 268.8144 257.7475 269.4548 258.0278 270.0953 258.3081 270.6915 258.5904 271.2436 258.8745 271.7957 259.1587 272.3204 259.4007 272.8179 259.6005 273.3153 259.8004 274.0691 260.0135 275.0791 260.2397 276.0891 260.466 277.1308 260.7976 278.2042 261.2346 279.2776 261.6716 279.9917 261.9051 280.3464 261.9351 280.7012 261.9651 281.0049 261.8024 281.2576 261.4471 281.6225 260.934 282.2268 259.8842 283.0705 258.2979" stroke="#000000" fill="none" stroke-linejoin="round" stroke-linecap="round" stroke-width="2.596988" transform="matrix(.5454546,0,0,.5454546,0,0)"/>
<path d="M270.5923 192.4741C270.2384 192.7544 270.0365 193.1227 269.9865 193.579 269.9526 193.8882 269.9843 194.3716 270.0815 195.0291 270.1786 195.6867 270.3605 196.6861 270.6272 198.0275 270.8938 199.3689 271.1634 201.1025 271.4359 203.2284 271.7083 205.3543 271.9922 207.5474 272.2875 209.8077 272.5829 212.068 272.8794 214.0945 273.1771 215.8871 273.4748 217.6797 273.7446 219.1915 273.9866 220.4226 274.2287 221.6537 274.4009 222.8287 274.5033 223.9477 274.6057 225.0667 274.6676 226.1689 274.689 227.2543 274.7104 228.3397 274.7106 229.783 274.6895 231.5842 274.6684 233.3854 274.6572 234.5704 274.656 235.1391 274.6548 235.7079 274.615 236.2333 274.5367 236.7153 274.4584 237.1974 274.2914 237.8298 274.0359 238.6124 273.7804 239.395 273.5906 239.945 273.4664 240.2623 273.3422 240.5797 273.2124 240.8438 273.0771 241.0546 272.9418 241.2653 272.7613 241.4764 272.5355 241.6877 272.3097 241.899 271.9956 242.1047 271.5931 242.3049 271.1907 242.505 270.7068 242.6823 270.1415 242.8365 269.5763 242.9908 268.9749 243.1205 268.3374 243.2254 267.7 243.3304 266.7814 243.4356 265.5818 243.5411 264.3823 243.6467 263.1766 243.7554 261.9647 243.8672 260.7529 243.979 259.6315 244.0557 258.6005 244.0971 257.5695 244.1385 256.8508 244.1431 256.4443 244.1109 256.0379 244.0787 255.6802 243.9491 255.3715 243.7221 255.0627 243.4951 254.8259 243.1744 254.6609 242.7601 254.496 242.3457 254.4053 241.8493 254.3888 241.2708 254.3723 240.6922 254.4414 240.1055 254.5962 239.5105 254.7509 238.9155 254.9757 238.3421 255.2704 237.7903 255.5652 237.2384 255.9284 236.7279 256.3601 236.2587 256.7917 235.7895 257.3084 235.3413 257.9102 234.9139 258.5119 234.4865 259.273 234.0333 260.1934 233.5541 261.1138 233.075 262.1563 232.5933 263.3208 232.109 265.034 231.3965 267.2275 230.6237 269.9014 229.7906" stroke="#000000" fill="none" stroke-linejoin="round" stroke-linecap="round" stroke-width="2.598425" transform="matrix(.5454546,0,0,.5454546,47.81536,109.05139)"/>
<path d="M300.721 195.1529C300.9831 195.8601 301.2641 198.3599 301.564 202.6523 301.8638 206.9447 302.1103 210.2284 302.3034 212.5035 302.4966 214.7786 302.6865 216.925 302.8734 218.9429 303.0603 220.9607 303.2971 222.8203 303.584 224.5215 303.8708 226.2227 304.1961 227.7905 304.5599 229.2251 304.9237 230.6597 305.3608 232.5519 305.8712 234.9017 306.3815 237.2516 306.7772 238.778 307.058 239.4809 307.3389 240.1838 307.6498 240.6935 307.9907 241.01 308.3316 241.3265 308.7705 241.5621 309.3073 241.7168 309.8441 241.8715 310.4913 241.9678 311.2488 242.0057 312.0063 242.0435 312.92 242.0643 313.9901 242.0681 315.0601 242.0719 316.2072 242.1411 317.4313 242.2758 318.6555 242.4104 319.826 242.5796 320.9427 242.7833 322.0594 242.987 323.0757 243.2277 323.9918 243.5054 324.9078 243.7832 325.6853 244.0758 326.3243 244.3833 326.9633 244.6908 327.5326 244.9383 328.0322 245.1257 328.5318 245.3131 329.0524 245.4218 329.5939 245.4517 330.1354 245.4816 330.679 245.3526 331.2247 245.0647 331.7704 244.7767 332.2772 244.4449 332.7452 244.0692 333.2131 243.6936 333.5933 243.3695 333.8859 243.0969 334.1785 242.8244 334.3716 242.5959 334.4652 242.4115 334.5588 242.2271 334.3922 241.8179 333.9652 241.1838 333.5383 240.5497 333.0928 240.0055 332.6289 239.5512 332.165 239.0968 331.5914 238.6679 330.9082 238.2643 330.225 237.8608 329.4471 237.4934 328.5744 237.1622 327.7017 236.8309 326.7693 236.5032 325.7771 236.1792 324.7849 235.8551 323.7812 235.4698 322.7659 235.0234 321.7506 234.577 320.79 234.1076 319.8842 233.6154 318.9783 233.1232 318.1616 232.7294 317.4343 232.434 316.7069 232.1386 315.9996 231.9314 315.3124 231.8123 314.6252 231.6933 313.9848 231.6054 313.391 231.5487 312.5247 231.4661 311.2865 231.5549 309.6762 231.8154" stroke="#000000" fill="none" stroke-linejoin="round" stroke-linecap="round" stroke-width="2.598425" transform="matrix(.5454546,0,0,.5454546,47.81536,109.05139)"/>
<path d="M327.0004 251.316C326.0549 251.9677 325.1301 252.6716 324.2259 253.4276 323.3217 254.1836 322.5348 254.8071 321.8654 255.2982 321.1959 255.7893 320.4478 256.2687 319.6212 256.7363 318.7945 257.2039 317.922 257.6323 317.0037 258.0215 316.0853 258.4107 315.1387 258.7674 314.1637 259.0916 313.1887 259.4159 311.8618 259.808 310.1829 260.2679 308.5041 260.7277 307.5583 260.9749 307.3455 261.0092 307.1327 261.0436 307.018 261.0621 307.0015 261.0648 306.9849 261.0674 306.9838 261.0656 306.9982 261.0592 307.0126 261.0528 307.1122 261.0086 307.297 260.9267 307.4818 260.8448 307.6711 260.8077 307.8651 260.8155 308.0591 260.8233 308.4045 261.0326 308.9013 261.4435 309.3982 261.8543 309.7241 262.1712 309.8791 262.3941 310.0341 262.617 310.2986 263.2917 310.6724 264.4182 311.0463 265.5447 311.3416 266.4805 311.5583 267.2254 311.775 267.9703 311.9638 268.7291 312.1246 269.5019 312.2853 270.2747 312.4073 270.9979 312.4906 271.6715 312.5738 272.3452 312.6524 273.0982 312.7264 273.9305 312.8003 274.7629 312.8847 275.595 312.9794 276.4271 313.0742 277.2591 313.1427 277.9348 313.185 278.4543 313.2273 278.9737 313.2707 279.7043 313.3152 280.646 313.3598 281.5877 313.4131 282.3229 313.4753 282.8517 313.5375 283.3804 313.5703 284.1365 313.5738 285.1199 313.5773 286.1032 313.6044 286.9334 313.655 287.6104 313.7057 288.2874 313.7678 289.0003 313.8413 289.7493 313.9148 290.4982 313.9528 291.3715 313.9553 292.3691 313.9577 293.3667 313.9684 294.1601 313.9874 294.7494 314.0064 295.3387 314.082 296.1689 314.2142 297.2401 314.3464 298.3112 314.4252 299.1646 314.4505 299.8004 314.4759 300.4361 314.4898 301.0902 314.4924 301.7625 314.4949 302.4348 314.4821 303.128 314.4539 303.842 314.4256 304.556 314.4 305.5282 314.377 306.7585 314.3539 307.9889 314.3323 308.9137 314.3123 309.5327 314.2922 310.1518 314.2265 311.1302 314.1151 312.4681 314.0036 313.806 313.9164 314.7884 313.8532 315.4154 313.79 316.0423 313.6657 316.9838 313.4802 318.2398 313.2947 319.4958 313.0814 320.8686 312.8403 322.3583 312.5991 323.848 312.4347 324.8867 312.347 325.4744 312.2594 326.0621 312.1637 326.6374 312.0599 327.2003 311.9562 327.7631 311.7496 328.7332 311.44 330.1106 311.1304 331.488 310.6632 333.4982 310.0384 336.1414 309.4136 338.7847 308.9237 340.7993 308.5686 342.1854 308.2136 343.5715 307.9416 344.5895 307.7528 345.2394 307.564 345.8893 307.2466 346.9286 306.8008 348.3575 306.355 349.7863 306.0194 350.8033 305.794 351.4086 305.5686 352.0138 305.3449 352.5607 305.1229 353.0492 304.901 353.5378 304.7029 353.9396 304.5288 354.2548 304.3546 354.57 304.0837 354.9537 303.7161 355.4059 303.3484 355.8581 303.0364 356.2769 302.7802 356.6624 302.5239 357.0478 302.231 357.4643 301.9015 357.9119 301.572 358.3594 301.1726 358.8456 300.7033 359.3704 300.234 359.8952 299.9483 360.3428 299.8461 360.7133 299.7439 361.0838 299.6408 361.3917 299.5369 361.637 299.4331 361.8823 299.528 362.0575 299.8216 362.1627 300.1153 362.2678 300.5815 362.6448 301.2204 363.2936 301.8593 363.9424 302.4406 364.5257 302.9644 365.0435 303.4882 365.5613 304.2632 366.2733 305.2894 367.1797 306.3156 368.086 307.0436 368.804 307.4734 369.3336 307.9031 369.8632 308.3151 370.4351 308.7095 371.0493 309.1038 371.6634 309.5106 372.2104 309.9299 372.6904 310.3492 373.1703 310.8172 373.5959 311.3339 373.9673 311.8507 374.3387 312.3865 374.7427 312.9415 375.1794 313.4965 375.616 314.4227 376.4823 315.7201 377.7782 317.0176 379.0741 317.9079 379.8551 318.391 380.1211 319.1189 380.5218 319.6293 380.6237 319.9222 380.4267" stroke="#000000" fill="none" stroke-linejoin="round" stroke-linecap="round" stroke-width="2.598425" transform="matrix(.5454546,0,0,.5454546,0,0)"/>
<path d="M271.9712 246.3983C271.6917 246.3866 271.5369 246.1284 271.5069 245.6238 271.4768 245.1192 271.4678 244.4706 271.4799 243.6779 271.4919 242.8852 271.4117 240.7571 271.2395 237.2935 271.0672 233.83 270.9304 230.7735 270.8291 228.1239 270.7278 225.4743 270.6185 222.8965 270.5011 220.3905 270.3838 217.8846 270.2802 215.8135 270.1903 214.1772 270.1005 212.5409 270.0474 211.0993 270.0311 209.8525 270.0148 208.6057 270.0287 207.4991 270.0727 206.5326 270.1167 205.5661 270.1593 204.7722 270.2003 204.1509 270.2415 203.5296 270.3106 202.8443 270.4078 202.0951 270.505 201.3458 270.5562 200.951 270.5614 200.9108 270.5666 200.8705 270.5715 200.8541 270.5761 200.8615 270.5806 200.8689 270.6253 200.9415 270.7102 201.0794 270.795 201.2172 270.9618 201.3508 271.2105 201.48 271.4592 201.6093 271.9065 201.8029 272.5524 202.061 273.1983 202.319 273.6975 202.5459 274.0499 202.7415 274.4023 202.9372 274.6629 203.1292 274.8316 203.3178 275.0003 203.5063 275.1188 203.7353 275.1869 204.0049 275.255 204.2745 275.2804 204.801 275.2629 205.5844 275.2454 206.3678 275.2519 207.3366 275.2824 208.4907 275.3129 209.6448 275.371 210.9753 275.4567 212.482 275.5424 213.9888 275.6137 215.1743 275.6707 216.0385 275.7278 216.9026 275.8269 218.1049 275.968 219.6452 276.1092 221.1854 276.2053 222.3258 276.2563 223.0661 276.3072 223.8065 276.3412 224.5287 276.3581 225.2328 276.375 225.9368 276.3591 226.947 276.3103 228.2633 276.2615 229.5796 276.2012 230.8006 276.1294 231.9262 276.0576 233.0518 276.0308 234.2745 276.0488 235.5943 276.0668 236.9141 276.0508 238.2286 276.0007 239.5377 275.9506 240.8468 275.946 241.9163 275.9869 242.746 276.0279 243.5758 276.0763 244.1135 276.1321 244.3591 276.2143 244.7208 276.2015 245.1442 276.0938 245.6293" stroke="#000000" fill="none" stroke-linejoin="round" stroke-linecap="round" stroke-width="2.596988" transform="matrix(.5454546,0,0,.5454546,0,0)"/>
<path d="M271.5253 261.0002C271.2894 261.2567 271.147 261.4117 271.0979 261.4651 271.0637 261.5023 271.0556 261.5005 271.0737 261.4596 271.0918 261.4186 271.1339 261.3233 271.2 261.1736 271.2662 261.0239 271.3779 260.943 271.5352 260.9309 271.6925 260.9188 271.8466 261.0833 271.9976 261.4245 272.1485 261.7656 272.2754 262.1331 272.3782 262.5268 272.481 262.9205 272.6157 263.5199 272.7823 264.3248 272.9489 265.1297 273.1263 265.725 273.3143 266.1108 273.5023 266.4966 273.7226 266.7438 273.975 266.8526 274.2275 266.9613 274.5219 267.046 274.8583 267.1067 275.1947 267.1674 275.4484 267.1745 275.6195 267.1281 275.7906 267.0817 276.0355 266.9209 276.354 266.6459 276.6726 266.3708 276.8679 266.1995 276.9399 266.1318 277.012 266.0642 276.989 265.9073 276.8711 265.6611 276.7025 265.3093 276.3829 264.0716 275.9124 261.9482" stroke="#000000" fill="none" stroke-linejoin="round" stroke-linecap="round" stroke-width="2.596988" transform="matrix(.5454546,0,0,.5454546,0,0)"/>
<path d="M276.5021 206.892C276.1952 206.8842 276.004 206.938 275.9287 207.0534 275.8762 207.1339 275.9323 207.2418 276.097 207.3771 276.2616 207.5123 276.5845 207.6624 277.0655 207.8273 277.5465 207.9922 278.1979 208.1574 279.0196 208.3229 279.8412 208.4885 281.0823 208.6155 282.7427 208.7041 284.4032 208.7926 286.5623 208.8581 289.22 208.9007 291.8777 208.9433 294.5688 209.0482 297.2933 209.2155 300.0178 209.3828 302.6896 209.5994 305.3089 209.8652 307.9281 210.1311 310.5022 210.4091 313.0311 210.6994 315.56 210.9897 318.1162 211.2386 320.6996 211.4462 323.2831 211.6538 325.8866 211.8411 328.5103 212.008 331.134 212.175 333.5441 212.359 335.7406 212.5601 337.937 212.7612 339.9262 212.9787 341.7082 213.2128 343.4901 213.4469 345.1253 213.6599 346.6136 213.8518 348.1019 214.0438 349.3998 214.1922 350.5072 214.2973 351.6146 214.4023 352.6392 214.4818 353.5811 214.5359 354.5231 214.5899 355.416 214.6534 356.2598 214.7263 357.1037 214.7992 358.4377 214.9959 360.2617 215.3163 362.0857 215.6368 363.1045 215.8158 363.3181 215.8533" stroke="#000000" fill="none" stroke-linejoin="round" stroke-linecap="round" stroke-width="2.596988" transform="matrix(.5454546,0,0,.5454546,0,0)"/>
<path d="M275.0136 247.2365C275.4058 247.2279 275.8519 247.098 276.3519 246.8468 276.8519 246.5955 277.4462 246.3074 278.1349 245.9823 278.8236 245.6573 279.6245 245.3034 280.5376 244.9208 281.4508 244.5381 282.3624 244.1697 283.2725 243.8153 284.1827 243.461 285.0575 243.1162 285.8969 242.781 286.7363 242.4458 287.6319 242.074 288.5839 241.6657 289.5358 241.2573 290.61 240.8132 291.8066 240.3334 293.0032 239.8535 294.2281 239.3875 295.4814 238.9353 296.7348 238.4831 297.9273 238.0643 299.0591 237.6789 300.1909 237.2934 302.0274 236.6965 304.5688 235.8881 307.1102 235.0797 309.1268 234.4279 310.6187 233.9327 312.1105 233.4375 313.5107 232.9992 314.8191 232.6177 316.1275 232.2362 317.3071 231.8822 318.3578 231.5559 319.4085 231.2296 320.4998 230.877 321.6317 230.4981 322.7636 230.1193 324.0149 229.7393 325.3858 229.3582 326.7567 228.9771 328.1832 228.5941 329.6655 228.2092 331.1477 227.8243 332.5217 227.4815 333.7877 227.1808 335.0537 226.8801 336.2519 226.5782 337.3824 226.2751 338.513 225.972 340.2623 225.4786 342.6304 224.7949 344.9984 224.1111 346.7679 223.615 347.9389 223.3067 349.1099 222.9983 350.208 222.7174 351.2332 222.4639 352.2584 222.2103 353.2016 221.946 354.0627 221.671 354.9239 221.396 355.7348 221.1124 356.4955 220.8201 357.2562 220.5278 357.989 220.2547 358.6938 220.0007 359.3987 219.7467 360.1182 219.5316 360.8524 219.3554 361.5865 219.1791 362.2025 219.0287 362.7002 218.904 363.4543 218.7151 364.018 218.4183 364.3913 218.0135" stroke="#000000" fill="none" stroke-linejoin="round" stroke-linecap="round" stroke-width="2.596988" transform="matrix(.5454546,0,0,.5454546,0,0)"/>
<path d="M282.2179 215.8715C282.1592 215.6957 282.1318 215.5563 282.1357 215.4533 282.1383 215.3826 282.1401 215.3368 282.1408 215.3156 282.1417 215.2945 282.1474 215.2931 282.1582 215.3114 282.1689 215.3297 282.1922 215.3695 282.2281 215.4307 282.264 215.4919 282.3084 215.6981 282.3612 216.0493 282.414 216.4004 282.4629 216.9011 282.5081 217.5513 282.5532 218.2015 282.6153 219.0187 282.6945 220.0029 282.7737 220.9871 282.8933 222.0439 283.0535 223.1734 283.2136 224.3029 283.397 225.3676 283.6034 226.3676 283.8098 227.3675 283.9883 228.2352 284.1388 228.9706 284.2894 229.7059 284.4178 230.3654 284.5243 230.9491 284.6306 231.5328 284.7138 232.0561 284.7737 232.5191 284.8336 232.982 284.8701 233.3414 284.8831 233.597 284.8962 233.8527 284.9175 234.0535 284.947 234.1995 284.9765 234.3455 284.9936 234.4302 284.9983 234.4535 285.003 234.4769 285.0053 234.4766 285.0052 234.4528 285.0051 234.4289 285.0047 234.3424 285.0041 234.1933 285.0035 234.0441 284.9737 233.7673 284.9147 233.3629 284.8557 232.9585 284.7978 232.5835 284.741 232.2381 284.6843 231.8926 284.6282 231.5505 284.5728 231.2115 284.5174 230.8727 284.4671 230.5843 284.4219 230.3466 284.3766 230.1088 284.3112 229.8075 284.2256 229.4427 284.14 229.078 284.0572 228.7363 283.9773 228.4177 283.8974 228.0991 283.8091 227.718 283.7124 227.2744 283.6157 226.8308 283.5557 226.4775 283.5325 226.2145 283.5093 225.9515 283.5015 225.6547 283.5092 225.3242 283.5169 224.9937 283.5199 224.7057 283.5183 224.46 283.5167 224.2144 283.5065 223.9838 283.4878 223.7682 283.4691 223.5526 283.4471 223.4001 283.4218 223.3106 283.3966 223.2211 283.3811 223.1663 283.3754 223.1461 283.3697 223.1259 283.3663 223.1186 283.3651 223.1242 283.364 223.1298 283.3608 223.1451 283.3556 223.17 283.3505 223.1949 283.3842 223.2318 283.4567 223.2807 283.5293 223.3296 283.655 223.3781 283.8336 223.4261 284.0123 223.4742 284.2716 223.5112 284.6116 223.5374 284.9514 223.5635 285.4097 223.5186 285.9865 223.4028 286.5632 223.287 287.1823 223.0962 287.8438 222.8304 288.5053 222.5645 289.0789 222.3051 289.5647 222.0523 290.0504 221.7994 290.4161 221.6108 290.6618 221.4864 290.9075 221.362 291.1245 221.2716 291.3127 221.2151 291.501 221.1587 291.741 221.0597 292.0327 220.918 292.3243 220.7762 292.5806 220.6614 292.8015 220.5733 293.0223 220.4852 293.1707 220.4149 293.2467 220.3623 293.3227 220.3097 293.3217 220.13 293.2437 219.8232 293.1657 219.5163 293.095 219.2309 293.0318 218.9669 292.9686 218.7028 292.8954 218.4201 292.8124 218.1188 292.7293 217.8174 292.6582 217.5329 292.5991 217.2651 292.5399 216.9974 292.4752 216.5995 292.4048 216.0715 292.3344 215.5435 292.2799 215.081 292.2413 214.6839 292.2026 214.2868 292.1695 214.0023 292.1418 213.8305 292.1143 213.6587 292.0988 213.5626 292.0956 213.5424 292.0923 213.5221 292.0898 213.5179 292.0879 213.5299 292.0861 213.5419 292.0774 213.5986 292.0619 213.7001 292.0464 213.8016 292.0485 213.9906 292.0683 214.2669 292.088 214.5432 292.1192 214.8988 292.1619 215.3336 292.2045 215.7684 292.2613 216.2971 292.3323 216.9196 292.4032 217.5422 292.497 218.327 292.6134 219.2739 292.7299 220.2208 292.859 221.2061 293.0005 222.2299 293.142 223.2538 293.3117 224.5354 293.5096 226.075 293.7075 227.6145 293.8346 228.6234 293.8908 229.1015 293.9471 229.5797 293.9802 230.0001 293.9901 230.3629 294.0001 230.7256 294.0136 230.9939 294.0305 231.1677 294.0475 231.3415 294.0531 231.4178 294.0473 231.3966 294.039 231.3664 294.0131 231.2713 293.9695 231.1114" stroke="#000000" fill="none" stroke-linejoin="round" stroke-linecap="round" stroke-width="2.596988" transform="matrix(.5454546,0,0,.5454546,0,0)"/>
<path d="M299.6762 215.8526C299.658 215.7995 299.6477 215.7694 299.6452 215.7622 299.6435 215.7572 299.6417 215.7629 299.6398 215.7794 299.638 215.7958 299.632 215.8493 299.6218 215.9398 299.6116 216.0304 299.6342 216.3533 299.6896 216.9087 299.745 217.4641 299.8265 218.2887 299.9341 219.3826 300.0417 220.4764 300.1681 221.5981 300.3131 222.7476 300.4582 223.897 300.6084 224.8846 300.7636 225.7104 300.9189 226.5361 301.0711 227.2185 301.2202 227.7576 301.3693 228.2967 301.4838 228.7296 301.5636 229.0563 301.6434 229.3831 301.6968 229.6265 301.7239 229.7867 301.7511 229.9469 301.7663 230.0366 301.7695 230.0559 301.7728 230.0752 301.7755 230.081 301.7776 230.0732 301.7796 230.0653 301.7893 230.0288 301.8067 229.9637 301.824 229.8986 301.8207 229.7194 301.7969 229.4259 301.773 229.1325 301.7356 228.7892 301.6847 228.3962 301.6338 228.0032 301.5862 227.557 301.5418 227.0578 301.4974 226.5586 301.4597 225.996 301.4287 225.3701 301.3978 224.7442 301.3824 223.9842 301.3825 223.0899 301.3827 222.1956 301.4014 221.2501 301.4387 220.2535 301.4759 219.257 301.5101 218.4522 301.5411 217.8394 301.5722 217.2265 301.5975 216.844 301.6169 216.6918 301.6364 216.5397 301.6591 216.4459 301.6851 216.4105 301.711 216.3751 301.7804 216.3778 301.8931 216.4186 302.0059 216.4594 302.1546 216.6219 302.3394 216.9062 302.5242 217.1904 302.7346 217.5907 302.9706 218.1071 303.2066 218.6235 303.4605 219.191 303.7322 219.8096 304.004 220.4282 304.2617 221.049 304.5054 221.6721 304.7492 222.2952 304.9622 222.8888 305.1446 223.4528 305.3271 224.0169 305.4966 224.4742 305.6533 224.8248 305.8099 225.1755 305.9728 225.3719 306.1419 225.4142 306.3111 225.4566 306.4868 225.3601 306.669 225.1249 306.8513 224.8897 307.0075 224.597 307.1375 224.2468 307.2676 223.8967 307.378 223.5336 307.4687 223.1577 307.5594 222.7817 307.7159 222.0194 307.9381 220.8707 308.1603 219.722 308.3732 218.8225 308.5769 218.1723 308.7805 217.522 309.0007 217.0044 309.2376 216.6194 309.4745 216.2343 309.6643 216.0088 309.807 215.9428 309.9497 215.8768 310.0568 215.8966 310.1282 216.0023 310.1996 216.108 310.2789 216.306 310.3659 216.5961 310.453 216.8863 310.5537 217.2614 310.6681 217.7216 310.7824 218.1817 310.9182 218.6967 311.0754 219.2668 311.2327 219.8368 311.3964 220.4906 311.5664 221.2282 311.7365 221.9658 311.8966 222.7364 312.0469 223.5399 312.1971 224.3435 312.2962 225.0332 312.3441 225.6091 312.392 226.185 312.4301 226.6058 312.4585 226.8716 312.4869 227.1375 312.508 227.2932 312.5218 227.3387 312.5357 227.3843 312.5445 227.4132 312.5482 227.4254 312.5519 227.4376 312.5495 227.4118 312.5409 227.348 312.5285 227.2566 312.4921 226.9869 312.4316 226.5389" stroke="#000000" fill="none" stroke-linejoin="round" stroke-linecap="round" stroke-width="2.596988" transform="matrix(.5454546,0,0,.5454546,0,0)"/>
<path d="M324.2656 216.9799C324.1519 216.8599 324.0838 216.7082 324.0612 216.5249 324.0385 216.3416 323.9884 216.1971 323.9107 216.0914 323.833 215.9856 323.6919 215.8853 323.4875 215.7903 323.2832 215.6953 323.0169 215.6153 322.6887 215.5504 322.3606 215.4854 322.0048 215.4507 321.6213 215.4463 321.2378 215.4419 320.8538 215.5184 320.4693 215.6759 320.0847 215.8334 319.7503 216.0936 319.466 216.4567 319.1816 216.8198 318.9521 217.3123 318.7774 217.9342 318.6027 218.5561 318.499 219.2905 318.4663 220.1374 318.4337 220.9843 318.4935 221.821 318.6457 222.6477 318.7979 223.4744 319.0213 224.1827 319.3157 224.7726 319.6102 225.3625 319.9766 225.7728 320.415 226.0034 320.8534 226.234 321.3193 226.3117 321.8127 226.2362 322.3061 226.1608 322.8126 225.9781 323.3324 225.6882 323.8522 225.3983 324.3573 225.0621 324.8477 224.6796 325.3381 224.2972 325.7255 223.9653 326.0098 223.6839 326.2941 223.4024 326.4888 223.1933 326.5938 223.0566 326.7355 222.8721 326.6988 222.7998 326.4837 222.8396" stroke="#000000" fill="none" stroke-linejoin="round" stroke-linecap="round" stroke-width="2.596988" transform="matrix(.5454546,0,0,.5454546,0,0)"/>
<path fill-opacity="0" d="M30.54546 752.1818H581.4546V32.1818H30.54546V752.1818Z" transform="matrix(1,0,0,-1,0,792)"/>
<path d="M51 68H1071V1398H51V68Z" stroke-opacity="0" stroke="#000000" fill="none" stroke-linejoin="miter" stroke-miterlimit="10" stroke-linecap="butt" stroke-width="10" transform="matrix(.5454546,0,0,.5454546,0,0)"/>
<text font-family="AAAAAB+.SFUI-Regular_wdth_opsz6" font-size="207.1224" transform="matrix(.9433008 0 0 .5454546 142.782 108.8465)" xml:space="preserve" fill-opacity="0"><tspan x="0" y="197.2112">A</tspan></text>
</svg>